# Blender v2.79 (sub 0) OBJ File: 'paper_plane_01.blend'
# www.blender.org
mtllib paper_plane_01.mtl
o Paper_Plane_Cube.002
v 1.246287 2.173243 0.695890
v 1.244941 2.174016 0.699994
v 1.918905 2.489064 -1.305146
v 1.923496 2.504701 -1.298747
v 1.400501 2.468841 -1.265985
v 1.387378 2.496128 -1.290919
v 1.244450 2.171653 0.701290
v 1.244525 2.173109 0.701398
v 1.241288 2.165068 0.698773
v 1.241288 2.166286 0.698820
v 1.241288 2.174402 -1.294243
v 1.241288 2.183554 -1.294243
v 1.236290 2.173243 0.695890
v 1.237635 2.174016 0.699994
v 0.563672 2.489064 -1.305146
v 0.559081 2.504701 -1.298747
v 1.082076 2.468841 -1.265985
v 1.095199 2.496128 -1.290919
v 1.238127 2.171653 0.701290
v 1.238052 2.173109 0.701398
vn -0.0298 -0.4013 -0.9155
vn 0.9063 -0.3400 0.2512
vn -0.5825 -0.0307 0.8122
vn 0.0289 -0.9888 -0.1467
vn -0.9059 0.4235 0.0037
vn -0.0147 0.9872 0.1587
vn 0.8802 -0.4746 -0.0020
vn 0.9522 -0.0313 0.3039
vn 0.6238 -0.2757 -0.7313
vn 1.0000 0.0000 0.0000
vn 0.0298 -0.4012 -0.9155
vn -0.9063 -0.3400 0.2512
vn 0.5825 -0.0307 0.8122
vn -0.0289 -0.9888 -0.1467
vn 0.9059 0.4235 0.0037
vn 0.0147 0.9872 0.1587
vn -0.8802 -0.4746 -0.0020
vn -0.9522 -0.0313 0.3039
vn -0.6238 -0.2757 -0.7313
usemtl None
s off
f 5//1 6//1 4//1 3//1
f 3//2 4//2 2//2 1//2
f 7//3 8//3 10//3 9//3
f 5//4 3//4 1//4 7//4
f 6//5 12//5 10//5 8//5
f 4//6 6//6 8//6 2//6
f 11//7 5//7 7//7 9//7
f 1//8 2//8 8//8 7//8
f 11//9 12//9 6//9 5//9
f 9//10 11//10 12//10 10//10
f 17//11 15//11 16//11 18//11
f 15//12 13//12 14//12 16//12
f 19//13 9//13 10//13 20//13
f 17//14 19//14 13//14 15//14
f 18//15 20//15 10//15 12//15
f 16//16 14//16 20//16 18//16
f 11//17 9//17 19//17 17//17
f 13//18 19//18 20//18 14//18
f 11//19 17//19 18//19 12//19
